<?xml version="1.0" standalone="no"?><svg xmlns="http://www.w3.org/2000/svg" viewBox="0 0 1440 320"><path fill="#000b76" fill-opacity="1" d="M0,320L34.3,298.7C68.6,277,137,235,206,197.3C274.3,160,343,128,411,138.7C480,149,549,203,617,213.3C685.7,224,754,192,823,154.7C891.4,117,960,75,1029,101.3C1097.1,128,1166,224,1234,250.7C1302.9,277,1371,235,1406,213.3L1440,192L1440,320L1405.7,320C1371.4,320,1303,320,1234,320C1165.7,320,1097,320,1029,320C960,320,891,320,823,320C754.3,320,686,320,617,320C548.6,320,480,320,411,320C342.9,320,274,320,206,320C137.1,320,69,320,34,320L0,320Z"></path></svg>